<svg width="51" height="54" viewBox="0 0 51 54" fill="none" xmlns="http://www.w3.org/2000/svg">
<rect y="0.63623" width="51" height="53.3638" rx="25.5" fill="#CACACA"/>
<path fill-rule="evenodd" clip-rule="evenodd" d="M48.7259 11.8559C49.7406 8.02533 46.9052 4.38546 42.9066 4.38546C39.9861 4.38546 37.3841 6.3737 36.643 9.17143L27.652 43.1162C26.6374 46.9467 29.4727 50.5865 33.4713 50.5865C36.3916 50.5865 38.9937 48.5983 39.7347 45.8006L48.7259 11.8559Z" fill="black"/>
<path fill-rule="evenodd" clip-rule="evenodd" d="M23.3194 11.8778C24.3556 8.04334 21.5214 4.3854 17.5143 4.3854C14.6092 4.3854 12.0176 6.35527 11.2657 9.13501L2.07979 43.0964C1.04189 46.9337 3.87795 50.595 7.88823 50.5951C10.7958 50.5951 13.3895 48.6232 14.1413 45.841L23.3194 11.8778Z" fill="black"/>
<path d="M18.0536 4.22538C20.4776 4.22538 22.6987 5.71342 23.5814 7.92872L37.6855 43.325C39.0694 46.798 36.5559 50.4108 32.7558 50.4108C30.4031 50.4109 28.2444 48.9749 27.3725 46.8299L13.0191 11.5184C11.5706 7.95481 14.1451 4.22539 18.0536 4.22538Z" fill="#595959"/>
</svg>
